<!-- Generated by IcoMoon.io -->
<svg version="1.1" xmlns="http://www.w3.org/2000/svg" width="29" height="32" viewBox="0 0 29 32">
<title>Meshingun_Logo_SVG_Smaller</title>
<path d="M3.397 0.117c-0.042 0.010-0.136 0.029-0.211 0.042-0.073 0.015-0.159 0.038-0.188 0.050-0.031 0.012-0.082 0.021-0.115 0.021-0.035 0.002-0.082 0.013-0.109 0.029s-0.069 0.027-0.092 0.029c-0.025 0-0.073 0.012-0.105 0.027-0.035 0.015-0.117 0.052-0.186 0.080-0.167 0.067-0.337 0.157-0.366 0.191-0.011 0.015-0.038 0.027-0.057 0.027s-0.038 0.008-0.044 0.017c-0.012 0.019-0.253 0.186-0.327 0.226-0.063 0.036-0.557 0.534-0.618 0.626-0.031 0.042-0.086 0.124-0.126 0.18-0.082 0.119-0.236 0.381-0.287 0.492-0.021 0.042-0.048 0.1-0.063 0.128-0.013 0.027-0.025 0.063-0.025 0.078 0 0.017-0.012 0.054-0.027 0.084-0.036 0.075-0.088 0.241-0.107 0.346-0.017 0.088-0.036 0.176-0.082 0.348-0.036 0.134-0.033 25.464 0.002 25.598 0.013 0.052 0.035 0.134 0.046 0.182 0.077 0.333 0.117 0.48 0.145 0.53 0.012 0.023 0.023 0.057 0.023 0.077s0.013 0.052 0.029 0.071c0.015 0.021 0.029 0.048 0.029 0.057 0 0.021 0.128 0.266 0.188 0.36 0.212 0.333 0.32 0.467 0.568 0.716 0.147 0.147 0.291 0.281 0.32 0.297 0.027 0.015 0.122 0.077 0.211 0.136 0.088 0.061 0.17 0.111 0.184 0.111 0.011 0 0.029 0.012 0.036 0.025 0.017 0.031 0.4 0.224 0.442 0.224 0.015 0 0.050 0.012 0.077 0.027 0.056 0.027 0.165 0.059 0.32 0.092 0.054 0.011 0.128 0.032 0.168 0.046 0.038 0.015 0.096 0.027 0.124 0.027 0.031 0 0.092 0.013 0.14 0.029 0.075 0.025 1.324 0.029 11.041 0.023 8.557-0.004 10.974-0.010 11.039-0.029 0.121-0.035 0.234-0.061 0.333-0.080 0.231-0.042 0.654-0.209 0.834-0.329 0.046-0.029 0.088-0.054 0.096-0.054s0.078-0.044 0.157-0.1c0.078-0.054 0.182-0.124 0.23-0.157 0.111-0.075 0.547-0.511 0.624-0.624 0.032-0.048 0.113-0.168 0.182-0.268 0.067-0.101 0.157-0.251 0.197-0.335 0.042-0.084 0.088-0.176 0.102-0.205 0.013-0.027 0.025-0.065 0.025-0.086 0-0.019 0.013-0.052 0.029-0.071 0.015-0.021 0.029-0.059 0.029-0.084s0.010-0.063 0.023-0.086c0.021-0.038 0.038-0.109 0.094-0.377 0.012-0.057 0.032-0.147 0.048-0.199 0.040-0.138 0.040-25.323 0-25.483-0.015-0.059-0.046-0.193-0.069-0.299-0.025-0.105-0.055-0.224-0.069-0.264-0.015-0.038-0.027-0.090-0.027-0.115 0-0.023-0.013-0.059-0.029-0.079-0.015-0.021-0.029-0.052-0.029-0.067 0-0.029-0.184-0.411-0.234-0.488-0.295-0.446-0.446-0.63-0.733-0.888-0.147-0.132-0.467-0.36-0.549-0.391-0.030-0.010-0.054-0.027-0.054-0.036 0-0.013-0.228-0.13-0.373-0.189-0.021-0.010-0.080-0.034-0.132-0.055-0.052-0.023-0.111-0.040-0.134-0.040-0.021-0.002-0.061-0.013-0.088-0.029s-0.075-0.027-0.109-0.029c-0.032 0-0.084-0.010-0.115-0.021-0.029-0.012-0.113-0.034-0.188-0.048-0.073-0.015-0.172-0.036-0.22-0.046-0.109-0.021-21.742-0.021-21.847 0.002zM25.263 0.884c0.203 0.034 0.323 0.065 0.417 0.103 0.035 0.015 0.077 0.027 0.092 0.027 0.017 0 0.054 0.012 0.080 0.027 0.029 0.013 0.121 0.057 0.205 0.098 0.084 0.038 0.188 0.094 0.23 0.122 0.042 0.027 0.1 0.061 0.128 0.077s0.069 0.040 0.086 0.057c0.019 0.017 0.096 0.080 0.17 0.142 0.113 0.092 0.249 0.232 0.406 0.425 0.103 0.124 0.235 0.344 0.32 0.526 0.027 0.057 0.061 0.13 0.077 0.159 0.015 0.031 0.029 0.067 0.029 0.084 0 0.015 0.012 0.055 0.027 0.088 0.046 0.102 0.092 0.322 0.136 0.645 0.027 0.197 0.029 1.537 0.029 12.498-0.002 10.622-0.006 12.299-0.029 12.431-0.015 0.084-0.029 0.189-0.029 0.234s-0.013 0.119-0.027 0.163c-0.015 0.046-0.036 0.117-0.048 0.159-0.050 0.211-0.201 0.547-0.343 0.766-0.209 0.321-0.559 0.677-0.836 0.846-0.159 0.098-0.302 0.174-0.392 0.212-0.057 0.025-0.122 0.052-0.144 0.061-0.075 0.034-0.212 0.080-0.287 0.096-0.042 0.008-0.101 0.023-0.13 0.036-0.031 0.012-0.092 0.021-0.138 0.021-0.044 0-0.149 0.013-0.234 0.029-0.134 0.025-1.388 0.029-10.783 0.025-10.955-0.006-10.752-0.004-11.032-0.075-0.042-0.012-0.111-0.027-0.153-0.036-0.291-0.061-0.752-0.293-1.024-0.511-0.339-0.272-0.662-0.677-0.821-1.030-0.023-0.054-0.055-0.122-0.069-0.153-0.015-0.033-0.033-0.082-0.040-0.113s-0.025-0.078-0.038-0.105c-0.015-0.027-0.027-0.077-0.027-0.107-0.002-0.033-0.013-0.078-0.029-0.105s-0.027-0.086-0.029-0.134c0-0.048-0.013-0.159-0.029-0.249-0.025-0.144-0.029-1.629-0.029-12.492 0-10.878 0.004-12.345 0.029-12.478 0.015-0.082 0.029-0.182 0.029-0.224 0-0.040 0.013-0.117 0.031-0.172 0.017-0.054 0.048-0.153 0.069-0.222 0.042-0.138 0.055-0.168 0.161-0.392 0.262-0.561 0.804-1.083 1.386-1.338 0.069-0.029 0.132-0.061 0.142-0.071 0.011-0.010 0.042-0.017 0.069-0.017s0.067-0.013 0.088-0.029c0.019-0.015 0.059-0.029 0.088-0.029s0.086-0.011 0.124-0.027c0.040-0.015 0.159-0.038 0.262-0.050 0.105-0.011 0.195-0.025 0.201-0.029 0.004-0.006 4.833-0.008 10.727-0.004 9.671 0.006 10.737 0.010 10.901 0.036z"></path>
<path d="M9.502 4.559c-0.388 0.061-0.743 0.3-0.861 0.578-0.015 0.038-0.042 0.1-0.057 0.136-0.042 0.1-0.040 0.593 0.002 0.693 0.073 0.17 0.119 0.241 0.218 0.339 0.163 0.159 0.388 0.255 0.699 0.299 0.054 0.008 0.134 0.023 0.182 0.034s0.13 0.029 0.182 0.040c0.293 0.057 0.427 0.121 0.502 0.236 0.048 0.071 0.054 0.098 0.054 0.233 0 0.14-0.006 0.163-0.057 0.239-0.050 0.075-0.124 0.138-0.191 0.161-0.174 0.065-0.239 0.073-0.517 0.065-0.314-0.008-0.467-0.040-0.622-0.13-0.015-0.010-0.054-0.029-0.086-0.044-0.031-0.013-0.079-0.048-0.103-0.077-0.082-0.088-0.138-0.069-0.264 0.088-0.061 0.075-0.117 0.147-0.124 0.157-0.010 0.015-0.027 0.013-0.054-0.004-0.031-0.019-0.22-0.025-0.857-0.023l-0.817 0.004v-0.913l0.712-0.006 0.714-0.004 0.025-0.044c0.017-0.029 0.025-0.102 0.021-0.234-0.004-0.243-0.002-0.232-0.038-0.268-0.027-0.027-0.113-0.029-0.712-0.029-0.377 0-0.695 0-0.706 0-0.019 0-0.025-0.109-0.025-0.478v-0.478h0.844c0.614 0.002 0.852-0.004 0.871-0.021 0.034-0.029 0.038-0.477 0.004-0.511-0.017-0.017-0.298-0.023-1.148-0.023-1.091 0-1.125 0.002-1.144 0.036-0.027 0.052-0.027 3.455 0 3.506 0.019 0.034 0.054 0.036 1.144 0.036 0.85 0 1.131-0.006 1.148-0.023 0.013-0.013 0.023-0.084 0.023-0.182v-0.161l0.084 0.065c0.136 0.103 0.39 0.222 0.576 0.268 0.226 0.057 0.321 0.071 0.505 0.071 0.532 0 0.882-0.115 1.122-0.366 0.205-0.216 0.289-0.457 0.272-0.764-0.017-0.287-0.105-0.484-0.293-0.649-0.134-0.117-0.423-0.245-0.658-0.291-0.205-0.038-0.302-0.059-0.373-0.077-0.042-0.011-0.111-0.027-0.153-0.034-0.14-0.027-0.295-0.115-0.35-0.199-0.044-0.067-0.052-0.096-0.050-0.222 0.002-0.165 0.025-0.224 0.132-0.329 0.107-0.109 0.258-0.151 0.536-0.151 0.295 0 0.408 0.034 0.706 0.216 0.102 0.061 0.151 0.056 0.191-0.021 0.015-0.029 0.077-0.111 0.134-0.184 0.059-0.073 0.107-0.147 0.107-0.167 0-0.042-0.203-0.166-0.459-0.279-0.281-0.124-0.653-0.168-0.986-0.117z"></path>
<path d="M18.823 4.563c-0.168 0.031-0.287 0.082-0.463 0.197-0.128 0.084-0.293 0.241-0.293 0.279 0 0.006-0.031 0.056-0.067 0.111-0.036 0.057-0.067 0.113-0.067 0.126s-0.012 0.052-0.027 0.086c-0.082 0.193-0.090 0.298-0.082 1.077 0.006 0.773 0.010 0.798 0.096 1.014 0.119 0.301 0.389 0.553 0.702 0.66 0.101 0.034 0.36 0.077 0.478 0.077 0.128 0 0.383-0.044 0.492-0.084 0.178-0.067 0.507-0.335 0.563-0.459 0.010-0.023 0.038-0.075 0.061-0.119 0.115-0.201 0.144-0.366 0.159-0.898 0.010-0.304 0.006-0.369-0.017-0.402-0.029-0.036-0.056-0.038-0.611-0.044-0.364-0.004-0.603 0.002-0.633 0.013l-0.052 0.021v0.235c0 0.157 0.008 0.243 0.023 0.258s0.122 0.023 0.354 0.023c0.383 0 0.345-0.033 0.312 0.258-0.021 0.18-0.077 0.321-0.159 0.411-0.067 0.075-0.18 0.153-0.218 0.153-0.019 0.002-0.055 0.013-0.082 0.029-0.067 0.038-0.293 0.034-0.411-0.006-0.134-0.048-0.18-0.075-0.264-0.155-0.084-0.079-0.109-0.121-0.165-0.279-0.038-0.107-0.040-0.155-0.040-0.754 0-0.683 0.006-0.743 0.101-0.938 0.136-0.274 0.521-0.429 0.769-0.308 0.042 0.021 0.086 0.036 0.098 0.038 0.032 0 0.218 0.172 0.239 0.218 0.010 0.023 0.025 0.054 0.034 0.069 0.012 0.015 0.023 0.050 0.029 0.077 0.023 0.113 0.048 0.124 0.289 0.13 0.381 0.011 0.406-0.004 0.331-0.22-0.119-0.358-0.36-0.645-0.656-0.788-0.054-0.025-0.111-0.054-0.13-0.063-0.065-0.030-0.329-0.073-0.454-0.071-0.069 0.002-0.176 0.013-0.239 0.025z"></path>
<path d="M2.796 4.601c-0.015 0.019-0.019 0.5-0.017 1.784l0.006 1.759 0.247 0.006c0.168 0.004 0.255-0.002 0.274-0.017 0.023-0.019 0.025-0.18 0.021-1.083-0.004-0.699 0-1.056 0.013-1.053 0.011 0.004 0.033 0.044 0.048 0.092 0.034 0.094 0.073 0.186 0.098 0.228 0.010 0.015 0.023 0.042 0.029 0.057 0.055 0.142 0.098 0.237 0.144 0.333 0.031 0.061 0.055 0.122 0.055 0.136s0.013 0.034 0.029 0.048c0.015 0.013 0.029 0.042 0.029 0.065s0.008 0.050 0.017 0.059c0.010 0.011 0.044 0.084 0.079 0.163s0.082 0.186 0.107 0.235c0.025 0.052 0.046 0.105 0.046 0.119 0 0.015 0.021 0.050 0.044 0.079 0.042 0.048 0.059 0.054 0.199 0.057 0.168 0.006 0.226-0.013 0.264-0.088 0.044-0.086 0.144-0.304 0.144-0.318 0-0.008 0.019-0.054 0.040-0.101 0.023-0.048 0.054-0.115 0.067-0.146 0.031-0.073 0.088-0.207 0.13-0.306 0.019-0.042 0.046-0.103 0.059-0.134 0.080-0.172 0.142-0.32 0.182-0.421 0.023-0.063 0.050-0.134 0.059-0.159 0.010-0.023 0.023-0.042 0.031-0.042 0.010 0 0.013 0.482 0.010 1.074-0.004 0.794 0 1.081 0.017 1.1 0.017 0.021 0.080 0.027 0.268 0.027 0.224 0 0.247-0.004 0.266-0.036 0.013-0.025 0.019-0.609 0.019-1.761 0-1.539-0.004-1.724-0.031-1.751-0.023-0.025-0.077-0.031-0.256-0.031-0.226 0-0.228 0-0.264 0.052-0.019 0.030-0.061 0.109-0.090 0.178-0.082 0.193-0.109 0.256-0.128 0.287-0.008 0.015-0.021 0.042-0.027 0.057-0.008 0.015-0.027 0.063-0.046 0.105-0.017 0.042-0.048 0.111-0.065 0.153-0.052 0.12-0.092 0.209-0.111 0.239-0.008 0.015-0.021 0.042-0.027 0.057s-0.031 0.071-0.055 0.124c-0.023 0.052-0.067 0.151-0.096 0.22-0.050 0.117-0.117 0.266-0.203 0.452-0.019 0.044-0.036 0.092-0.036 0.107 0 0.017-0.011 0.040-0.027 0.054-0.015 0.011-0.031 0.046-0.035 0.073-0.008 0.071-0.059 0.065-0.075-0.006-0.006-0.033-0.040-0.119-0.073-0.191-0.035-0.075-0.075-0.165-0.092-0.201s-0.038-0.080-0.048-0.096c-0.008-0.015-0.021-0.042-0.027-0.057s-0.023-0.054-0.038-0.082c-0.013-0.031-0.027-0.063-0.027-0.073 0-0.017-0.122-0.289-0.155-0.343-0.010-0.015-0.023-0.042-0.029-0.057-0.042-0.109-0.098-0.237-0.146-0.345-0.030-0.069-0.069-0.155-0.086-0.191-0.144-0.327-0.184-0.411-0.22-0.465-0.036-0.052-0.038-0.052-0.262-0.052-0.168 0-0.232 0.008-0.249 0.027z"></path>
<path d="M11.181 4.597c-0.033 0.032-0.033 3.5 0 3.533 0.015 0.015 0.103 0.023 0.274 0.023s0.258-0.008 0.274-0.023c0.017-0.017 0.023-0.207 0.023-0.737 0-0.559 0.006-0.714 0.025-0.714 0.021-0.002 1.334 0 1.353 0 0.006 0 0.008 0.314 0.004 0.699-0.004 0.475 0.002 0.71 0.015 0.737 0.019 0.036 0.038 0.038 0.277 0.038 0.235 0 0.258-0.004 0.277-0.038 0.013-0.025 0.017-0.586 0.015-1.77-0.006-1.516-0.010-1.736-0.034-1.751-0.015-0.010-0.134-0.019-0.262-0.019-0.188 0-0.239 0.006-0.264 0.031-0.027 0.027-0.031 0.115-0.029 0.758 0.002 0.4-0.002 0.731-0.006 0.735-0.006 0.006-0.316 0.011-0.691 0.013l-0.681 0.004v-0.741c0-0.647-0.004-0.744-0.031-0.769-0.023-0.025-0.077-0.031-0.274-0.031-0.163 0-0.251 0.008-0.266 0.023z"></path>
<path d="M14.052 4.597c-0.033 0.032-0.033 3.5 0 3.533 0.015 0.015 0.105 0.023 0.277 0.023 0.231 0 0.255-0.004 0.274-0.036 0.013-0.025 0.019-0.609 0.019-1.761 0-1.539-0.004-1.724-0.031-1.751-0.023-0.025-0.077-0.031-0.274-0.031-0.163 0-0.251 0.008-0.266 0.023z"></path>
<path d="M14.94 4.605c-0.027 0.027-0.031 0.212-0.031 1.751 0 1.152 0.006 1.736 0.019 1.761 0.019 0.032 0.042 0.036 0.277 0.036s0.258-0.004 0.277-0.036c0.011-0.025 0.019-0.442 0.019-1.221 0-1.177 0.002-1.183 0.038-1.135 0.021 0.027 0.038 0.054 0.038 0.061 0 0.011 0.212 0.35 0.392 0.628 0.023 0.036 0.101 0.157 0.172 0.268 0.073 0.111 0.161 0.249 0.197 0.306 0.038 0.057 0.103 0.161 0.147 0.23s0.12 0.189 0.172 0.268c0.050 0.079 0.107 0.167 0.126 0.195s0.036 0.055 0.036 0.061c0 0.004 0.054 0.088 0.12 0.188l0.121 0.178 0.235 0.006c0.157 0.004 0.245-0.002 0.262-0.017 0.023-0.019 0.027-0.3 0.027-1.77 0-1.709 0-1.749-0.036-1.768-0.048-0.025-0.48-0.025-0.519 0-0.025 0.015-0.029 0.174-0.029 1.234 0 0.668-0.004 1.215-0.010 1.215s-0.044-0.059-0.084-0.13c-0.042-0.071-0.111-0.18-0.153-0.243-0.044-0.063-0.096-0.146-0.117-0.182-0.061-0.105-0.144-0.237-0.272-0.434-0.067-0.101-0.144-0.222-0.172-0.27-0.030-0.048-0.067-0.105-0.082-0.128-0.033-0.050-0.146-0.232-0.197-0.323-0.021-0.033-0.052-0.077-0.073-0.1-0.019-0.021-0.036-0.046-0.036-0.055 0-0.013-0.1-0.174-0.299-0.48-0.036-0.055-0.079-0.103-0.096-0.111-0.015-0.006-0.122-0.011-0.237-0.011-0.163 0-0.214 0.006-0.237 0.031z"></path>
<path d="M20.576 4.601c-0.017 0.019-0.021 0.358-0.015 1.296 0.008 1.41 0.006 1.38 0.138 1.654 0.126 0.256 0.346 0.457 0.612 0.559 0.103 0.038 0.375 0.082 0.517 0.082 0.134 0 0.411-0.046 0.507-0.082 0.189-0.073 0.339-0.176 0.461-0.318 0.094-0.107 0.199-0.297 0.218-0.389 0.008-0.034 0.021-0.073 0.031-0.084 0.040-0.050 0.054-0.463 0.055-1.552 0-1.12-0.002-1.154-0.036-1.173-0.021-0.010-0.142-0.019-0.268-0.019-0.182 0-0.235 0.006-0.258 0.031-0.027 0.027-0.031 0.161-0.031 1.192 0 1.191-0.008 1.321-0.077 1.466-0.050 0.105-0.155 0.224-0.232 0.26-0.107 0.052-0.274 0.094-0.369 0.094-0.113 0-0.341-0.063-0.411-0.113-0.092-0.067-0.169-0.165-0.214-0.283l-0.046-0.111-0.010-1.25c-0.008-1.083-0.013-1.252-0.038-1.267-0.048-0.031-0.507-0.025-0.534 0.008z"></path>
<path d="M23.384 4.595c-0.032 0.017-0.034 0.122-0.034 1.764 0 1.334 0.006 1.753 0.023 1.77 0.015 0.015 0.103 0.023 0.274 0.023s0.258-0.008 0.274-0.023c0.017-0.017 0.023-0.316 0.023-1.219v-1.198l0.042 0.067c0.084 0.136 0.302 0.471 0.331 0.507 0.015 0.019 0.029 0.044 0.029 0.054s0.023 0.050 0.054 0.088c0.029 0.038 0.061 0.086 0.075 0.107 0.145 0.239 0.166 0.27 0.264 0.417 0.033 0.048 0.105 0.163 0.163 0.255s0.151 0.235 0.207 0.32c0.054 0.082 0.1 0.153 0.1 0.159 0 0.004 0.029 0.050 0.063 0.099 0.077 0.113 0.094 0.144 0.161 0.258 0.030 0.050 0.071 0.096 0.092 0.102s0.145 0.006 0.277 0.004l0.239-0.006 0.006-1.768c0.004-1.403 0-1.772-0.019-1.786-0.040-0.025-0.52-0.019-0.547 0.008-0.017 0.017-0.023 0.321-0.023 1.248 0 0.735-0.008 1.217-0.017 1.206-0.010-0.010-0.033-0.044-0.054-0.077-0.046-0.080-0.161-0.27-0.197-0.323-0.015-0.025-0.054-0.086-0.084-0.138-0.031-0.050-0.094-0.145-0.14-0.212s-0.082-0.126-0.082-0.132c0-0.006-0.040-0.071-0.090-0.145-0.052-0.077-0.099-0.151-0.111-0.17-0.105-0.178-0.287-0.465-0.521-0.823-0.088-0.132-0.159-0.247-0.159-0.253 0-0.025-0.119-0.18-0.145-0.191-0.050-0.019-0.436-0.011-0.471 0.010z"></path>
<path d="M4.211 8.982c-0.153 0.059-0.293 0.203-0.333 0.343-0.038 0.134-0.038 0.164 0 0.295 0.044 0.151 0.172 0.283 0.373 0.385 0.088 0.044 0.174 0.084 0.189 0.092 0.157 0.063 0.281 0.212 0.258 0.312-0.006 0.031-0.036 0.086-0.067 0.123-0.077 0.092-0.197 0.12-0.379 0.088-0.071-0.011-0.142-0.032-0.159-0.048-0.015-0.013-0.038-0.025-0.050-0.025s-0.030-0.013-0.044-0.031c-0.017-0.017-0.050-0.027-0.094-0.023-0.059 0.006-0.069 0.013-0.082 0.073-0.023 0.111 0.013 0.205 0.102 0.26 0.26 0.163 0.607 0.163 0.869-0.004 0.222-0.14 0.321-0.436 0.22-0.662-0.042-0.096-0.193-0.258-0.277-0.297-0.031-0.013-0.071-0.032-0.086-0.042s-0.096-0.050-0.178-0.090c-0.222-0.109-0.289-0.205-0.245-0.354 0.019-0.061 0.036-0.080 0.111-0.113 0.048-0.021 0.101-0.038 0.119-0.038 0.048 0 0.243 0.065 0.274 0.092 0.046 0.036 0.145 0.050 0.178 0.023 0.029-0.025 0.040-0.178 0.017-0.239-0.013-0.034-0.094-0.080-0.228-0.128-0.132-0.046-0.352-0.042-0.488 0.010z"></path>
<path d="M12.731 8.966c-0.036 0.015-0.071 0.050-0.082 0.080-0.011 0.032-0.017 0.272-0.015 0.656 0.002 0.423-0.004 0.616-0.019 0.645-0.011 0.023-0.021 0.057-0.021 0.077 0 0.021-0.033 0.067-0.071 0.103-0.098 0.092-0.249 0.126-0.394 0.092-0.136-0.032-0.201-0.084-0.255-0.207-0.046-0.102-0.046-0.109-0.046-0.75v-0.647l-0.057-0.031c-0.031-0.015-0.082-0.029-0.115-0.029s-0.084 0.013-0.115 0.029l-0.057 0.031v0.674c0.002 0.595 0.006 0.685 0.034 0.769 0.050 0.142 0.086 0.203 0.172 0.287 0.297 0.293 0.877 0.26 1.129-0.061 0.079-0.101 0.102-0.149 0.14-0.302 0.031-0.115 0.036-0.214 0.036-0.712 0-0.32-0.008-0.599-0.019-0.626-0.031-0.082-0.147-0.119-0.245-0.079z"></path>
<path d="M20.050 8.966c-0.040 0.015-0.082 0.038-0.090 0.052-0.010 0.013-0.017 0.431-0.017 0.926 0 0.846 0.002 0.903 0.034 0.932 0.071 0.065 0.216 0.065 0.279 0.002 0.027-0.027 0.031-0.138 0.031-0.932 0-0.498-0.008-0.913-0.015-0.926s-0.044-0.036-0.080-0.052c-0.057-0.023-0.078-0.023-0.142-0.002z"></path>
<path d="M23.589 8.97c-0.241 0.090-0.429 0.243-0.503 0.41-0.090 0.197-0.109 0.304-0.109 0.582 0 0.377 0.067 0.584 0.245 0.758 0.157 0.153 0.356 0.228 0.605 0.228 0.348 0 0.651-0.174 0.771-0.44 0.023-0.048 0.050-0.107 0.063-0.134 0.077-0.155 0.071-0.846-0.006-0.923-0.013-0.013-0.023-0.034-0.023-0.048 0-0.046-0.132-0.231-0.205-0.285-0.099-0.077-0.138-0.096-0.272-0.142-0.142-0.048-0.446-0.052-0.567-0.006zM24.103 9.303c0.096 0.048 0.132 0.090 0.197 0.228 0.048 0.1 0.050 0.12 0.050 0.402 0 0.279-0.002 0.302-0.048 0.402-0.029 0.057-0.088 0.14-0.134 0.184-0.109 0.101-0.256 0.136-0.45 0.101-0.197-0.034-0.295-0.132-0.356-0.356-0.063-0.235-0.029-0.687 0.059-0.775 0.013-0.013 0.023-0.032 0.023-0.046 0-0.046 0.155-0.157 0.245-0.176 0.128-0.029 0.32-0.011 0.413 0.036z"></path>
<path d="M7.522 8.978c-0.063 0.025-0.077 0.050-0.077 0.142 0 0.142 0.048 0.165 0.327 0.161 0.115-0.002 0.214 0.002 0.22 0.008s0.010 0.343 0.008 0.746c0 0.406 0.004 0.76 0.011 0.787 0.013 0.057 0.094 0.107 0.17 0.107 0.069 0 0.163-0.052 0.165-0.092 0-0.017 0-0.375-0.002-0.794-0.002-0.611 0.004-0.76 0.023-0.762 0.013 0 0.126 0 0.249 0.002 0.201 0.002 0.228-0.002 0.262-0.036 0.080-0.080 0.071-0.22-0.019-0.264-0.057-0.030-1.263-0.032-1.338-0.004z"></path>
<path d="M15.835 8.984c-0.042 0.019-0.063 0.044-0.073 0.088-0.019 0.1-0.013 1.696 0.008 1.749 0.029 0.080 0.082 0.094 0.352 0.090 0.431-0.004 0.58-0.031 0.758-0.144 0.113-0.073 0.165-0.121 0.228-0.212 0.235-0.356 0.232-0.919-0.012-1.261-0.057-0.079-0.264-0.237-0.312-0.239-0.017-0.002-0.046-0.013-0.067-0.029-0.052-0.035-0.17-0.048-0.526-0.059-0.23-0.008-0.31-0.004-0.356 0.017zM16.588 9.313c0.023 0.015 0.055 0.027 0.071 0.027 0.031 0 0.142 0.128 0.189 0.22 0.036 0.069 0.071 0.251 0.071 0.369 0 0.123-0.036 0.327-0.073 0.406-0.038 0.080-0.155 0.211-0.19 0.211-0.015 0-0.046 0.011-0.069 0.027-0.042 0.029-0.44 0.050-0.463 0.027-0.008-0.008-0.017-1.213-0.010-1.319 0-0.025 0.431 0.006 0.473 0.033z"></path>
<path d="M3.826 12.377c-0.017 0.017-0.052 0.046-0.075 0.067l-0.042 0.038 0.008 0.788c0.008 0.551 0.017 0.8 0.032 0.831 0.017 0.033 0.015 0.054-0.008 0.098-0.025 0.050-0.029 0.195-0.029 1.035v0.98l0.055 0.052 0.057 0.054-0.117 0.101 0.010 0.781c0.006 0.58 0.015 0.792 0.035 0.833 0.021 0.046 0.019 0.061-0.008 0.109-0.029 0.048-0.033 0.149-0.033 1.032 0 0.93 0.002 0.98 0.036 1.014 0.019 0.019 0.048 0.040 0.061 0.046 0.019 0.008 0.008 0.027-0.038 0.067l-0.065 0.056 0.011 0.798c0.008 0.584 0.015 0.804 0.033 0.825 0.019 0.023 0.017 0.042-0.008 0.094-0.027 0.057-0.031 0.182-0.031 1.035v0.97l0.115 0.115-0.119 0.111 0.010 0.783c0.006 0.536 0.015 0.792 0.031 0.821 0.017 0.033 0.015 0.054-0.008 0.1-0.027 0.050-0.029 0.182-0.025 1.053 0.004 0.76 0.011 0.999 0.029 1.016 0.032 0.032 0.323 0.032 0.356 0 0.015-0.015 0.023-0.1 0.023-0.27 0-0.134 0.006-0.251 0.013-0.258s0.044-0.002 0.084 0.010c0.048 0.017 0.142 0.021 0.279 0.015 0.191-0.010 0.207-0.008 0.207 0.025 0 0.046 0.057 0.075 0.151 0.075 0.071 0 0.079 0.006 0.079 0.046 0 0.027 0.019 0.061 0.042 0.077 0.038 0.027 0.49 0.031 4.419 0.031 4.362 0 4.375 0 4.425-0.038 0.027-0.021 0.052-0.057 0.056-0.082 0.004-0.031 0.023-0.046 0.073-0.056 0.036-0.008 0.115-0.023 0.172-0.034s0.132-0.034 0.167-0.050c0.032-0.013 0.073-0.027 0.088-0.027s0.059-0.013 0.096-0.029c0.038-0.015 0.111-0.029 0.161-0.029s0.117-0.013 0.147-0.029c0.029-0.015 0.071-0.029 0.090-0.029s0.069-0.013 0.107-0.029c0.061-0.025 0.268-0.031 1.355-0.036 1.537-0.010 3.154-0.054 3.282-0.088 0.036-0.012 0.232-0.029 0.431-0.038 0.44-0.021 0.695-0.044 1.244-0.103 0.159-0.017 0.314-0.040 0.345-0.050 0.033-0.010 0.105-0.023 0.163-0.029 0.057-0.008 0.153-0.025 0.211-0.040s0.14-0.027 0.182-0.027c0.044 0 0.090-0.012 0.101-0.023 0.013-0.013 0.082-0.030 0.153-0.038 0.071-0.006 0.201-0.030 0.291-0.054s0.207-0.050 0.258-0.059c0.054-0.012 0.122-0.029 0.153-0.040 0.033-0.011 0.122-0.030 0.201-0.044 0.144-0.025 0.228-0.046 0.335-0.084 0.165-0.055 0.314-0.098 0.354-0.098 0.054 0 0.207-0.054 0.249-0.086 0.015-0.013 0.078-0.046 0.138-0.077 0.084-0.040 0.12-0.071 0.159-0.136l0.050-0.086-0.038-0.061c-0.073-0.117-0.178-0.197-0.318-0.241-0.073-0.025-0.161-0.055-0.195-0.071-0.032-0.015-0.073-0.027-0.088-0.027s-0.054-0.013-0.082-0.029c-0.031-0.015-0.080-0.029-0.109-0.029s-0.073-0.013-0.098-0.029c-0.044-0.029-0.121-0.048-0.364-0.086-0.061-0.012-0.149-0.033-0.197-0.048-0.046-0.015-0.103-0.029-0.128-0.029s-0.071-0.013-0.1-0.029c-0.031-0.015-0.090-0.029-0.132-0.029s-0.094-0.013-0.113-0.029c-0.023-0.017-0.080-0.029-0.147-0.029-0.059 0-0.165-0.017-0.232-0.038-0.065-0.021-0.151-0.038-0.188-0.038s-0.101-0.013-0.144-0.029c-0.042-0.015-0.115-0.027-0.163-0.029-0.050 0-0.096-0.008-0.105-0.017-0.012-0.010-0.144-0.027-0.297-0.038s-0.325-0.029-0.383-0.038c-0.057-0.010-0.168-0.019-0.245-0.019-0.077-0.002-0.159-0.012-0.18-0.023-0.023-0.012-0.119-0.025-0.214-0.029-0.463-0.019-0.588-0.027-0.607-0.038-0.023-0.013-0.151-0.021-0.859-0.050-0.945-0.036-1.156-0.042-2.584-0.052-1.089-0.010-1.435-0.017-1.468-0.036-0.023-0.012-0.059-0.023-0.080-0.023-0.023 0-0.098-0.027-0.168-0.061-0.071-0.032-0.159-0.067-0.197-0.075-0.036-0.008-0.122-0.027-0.191-0.044-0.069-0.015-0.174-0.040-0.234-0.052-0.086-0.019-0.111-0.031-0.111-0.059 0-0.019-0.019-0.054-0.040-0.075-0.040-0.040-0.050-0.040-0.729-0.034l-0.689 0.008v-0.612l0.702-0.010c0.773-0.012 0.7 0.002 0.766-0.124 0.011-0.019 0.050-0.044 0.086-0.054 0.237-0.057 0.306-0.077 0.388-0.102 0.088-0.029 0.146-0.040 0.396-0.086 0.057-0.010 0.14-0.031 0.182-0.044 0.142-0.048 0.268-0.063 0.498-0.057 0.126 0.002 0.251 0.004 0.277 0.004s0.461-0.006 0.966-0.011c1.273-0.013 2.321-0.035 2.526-0.050 0.096-0.006 0.31-0.019 0.478-0.031s0.406-0.029 0.526-0.040c0.12-0.010 0.339-0.027 0.486-0.036 0.145-0.010 0.295-0.027 0.335-0.038 0.038-0.010 0.138-0.019 0.222-0.019s0.188-0.010 0.23-0.021c0.042-0.010 0.128-0.027 0.191-0.034s0.153-0.025 0.201-0.036c0.048-0.012 0.165-0.035 0.258-0.052 0.096-0.017 0.237-0.046 0.316-0.061s0.184-0.034 0.232-0.044 0.134-0.029 0.189-0.046c0.057-0.017 0.126-0.031 0.155-0.031s0.077-0.013 0.105-0.029c0.031-0.015 0.075-0.029 0.096-0.029 0.023 0 0.078-0.013 0.122-0.029s0.105-0.029 0.136-0.029c0.031 0 0.082-0.012 0.117-0.027 0.077-0.033 0.201-0.065 0.341-0.090 0.057-0.012 0.113-0.027 0.122-0.038 0.012-0.010 0.036-0.017 0.057-0.017 0.042 0 0.224-0.086 0.312-0.149 0.030-0.019 0.069-0.042 0.086-0.048s0.052-0.046 0.073-0.090l0.040-0.078-0.040-0.065c-0.067-0.109-0.182-0.197-0.301-0.232-0.061-0.017-0.124-0.038-0.14-0.046-0.098-0.048-0.586-0.191-0.689-0.201-0.069-0.008-0.142-0.019-0.163-0.029s-0.077-0.025-0.124-0.036c-0.107-0.023-0.22-0.052-0.396-0.1-0.077-0.019-0.17-0.036-0.207-0.036-0.038 0-0.084-0.008-0.103-0.019-0.035-0.017-0.121-0.034-0.433-0.088-0.084-0.013-0.201-0.034-0.258-0.046s-0.159-0.025-0.222-0.027c-0.065-0.004-0.126-0.012-0.138-0.019-0.017-0.012-0.299-0.042-0.712-0.080-0.048-0.004-0.232-0.015-0.411-0.027-0.178-0.010-0.36-0.023-0.402-0.029s-0.235-0.019-0.431-0.029c-0.195-0.010-0.388-0.023-0.431-0.027-0.211-0.025-1.613-0.055-2.737-0.061-0.769-0.004-1.311-0.015-1.388-0.027-0.069-0.012-0.216-0.059-0.327-0.105-0.113-0.048-0.226-0.086-0.255-0.086-0.027 0-0.082-0.012-0.121-0.027-0.040-0.015-0.13-0.033-0.201-0.040-0.096-0.010-0.13-0.019-0.13-0.040 0-0.015-0.013-0.054-0.029-0.084l-0.029-0.057-0.7-0.004-0.7-0.006v-0.574l0.687-0.010c0.75-0.010 0.739-0.008 0.767-0.122 0.013-0.054 0.025-0.061 0.102-0.069 0.046-0.006 0.103-0.021 0.126-0.034s0.067-0.023 0.099-0.023c0.033 0 0.086-0.012 0.121-0.027 0.067-0.029 0.214-0.063 0.369-0.084 0.054-0.008 0.105-0.021 0.119-0.029 0.011-0.008 0.101-0.035 0.201-0.059 0.149-0.036 0.216-0.044 0.417-0.038 0.132 0.004 0.26 0.006 0.287 0.006 3.077-0.025 3.246-0.029 3.286-0.052 0.027-0.015 0.13-0.023 0.308-0.023 0.147 0 0.431-0.012 0.628-0.027 0.199-0.015 0.469-0.035 0.601-0.040 0.132-0.008 0.253-0.021 0.27-0.031 0.017-0.008 0.132-0.021 0.258-0.029 0.124-0.008 0.245-0.021 0.266-0.032s0.132-0.027 0.245-0.033c0.113-0.008 0.216-0.023 0.228-0.034 0.013-0.013 0.061-0.023 0.109-0.023 0.050-0.002 0.122-0.013 0.165-0.029s0.103-0.029 0.136-0.029c0.032 0 0.084-0.010 0.115-0.019 0.031-0.012 0.124-0.033 0.209-0.046 0.165-0.031 0.291-0.059 0.383-0.092 0.033-0.011 0.101-0.027 0.153-0.034 0.054-0.010 0.147-0.029 0.211-0.046s0.138-0.031 0.168-0.031c0.029 0 0.067-0.008 0.086-0.017 0.017-0.010 0.077-0.033 0.128-0.050 0.094-0.031 0.126-0.038 0.373-0.090 0.12-0.027 0.341-0.124 0.404-0.18 0.015-0.015 0.044-0.027 0.059-0.027 0.017 0 0.054-0.038 0.080-0.084 0.040-0.071 0.046-0.094 0.031-0.136-0.033-0.084-0.203-0.235-0.281-0.251-0.038-0.008-0.092-0.025-0.119-0.038-0.027-0.015-0.059-0.027-0.071-0.027-0.013 0-0.048-0.013-0.077-0.029-0.031-0.015-0.073-0.029-0.094-0.029-0.021-0.002-0.059-0.013-0.086-0.029s-0.071-0.027-0.101-0.029c-0.029 0-0.084-0.017-0.123-0.038-0.040-0.021-0.094-0.038-0.12-0.038-0.067 0-0.36-0.057-0.44-0.086-0.036-0.013-0.115-0.034-0.172-0.046s-0.209-0.044-0.333-0.069c-0.126-0.027-0.249-0.048-0.272-0.048s-0.067-0.013-0.096-0.029c-0.031-0.015-0.096-0.029-0.145-0.029s-0.113-0.010-0.144-0.023c-0.057-0.023-0.364-0.063-0.714-0.090-0.12-0.010-0.241-0.027-0.268-0.036s-0.176-0.025-0.335-0.031c-0.157-0.008-0.318-0.021-0.354-0.031s-0.243-0.023-0.459-0.029c-0.216-0.008-0.444-0.021-0.507-0.033-0.134-0.021-1.384-0.057-1.487-0.042-0.042 0.006-0.088 0-0.115-0.015-0.034-0.019-0.331-0.027-1.441-0.034-1.543-0.012-1.414-0.002-1.709-0.136-0.065-0.031-0.151-0.055-0.191-0.055-0.038-0.002-0.092-0.013-0.119-0.029s-0.088-0.027-0.136-0.029c-0.136 0-0.205-0.033-0.243-0.113l-0.033-0.069-1.411-0.019v-0.293c0-0.161 0.004-0.299 0.010-0.304s0.308-0.008 0.672-0.008c0.459 0.002 0.674-0.004 0.702-0.017 0.021-0.013 0.052-0.050 0.065-0.084 0.025-0.057 0.038-0.065 0.176-0.096 0.205-0.048 0.352-0.088 0.396-0.111 0.021-0.011 0.098-0.027 0.17-0.036 0.132-0.017 0.19-0.031 0.358-0.092 0.075-0.025 0.253-0.031 1.34-0.036 1.835-0.011 3.282-0.052 3.426-0.098 0.036-0.011 0.193-0.021 0.348-0.021 0.163 0 0.304-0.010 0.335-0.021 0.029-0.011 0.157-0.025 0.283-0.029 0.126-0.006 0.264-0.017 0.306-0.027s0.163-0.023 0.268-0.029c0.105-0.008 0.226-0.021 0.268-0.033 0.042-0.010 0.149-0.029 0.239-0.044 0.321-0.050 0.431-0.071 0.488-0.090 0.033-0.011 0.109-0.027 0.172-0.032 0.063-0.008 0.134-0.023 0.157-0.036s0.069-0.023 0.101-0.023 0.107-0.017 0.167-0.038c0.061-0.021 0.14-0.038 0.178-0.038 0.036-0.002 0.088-0.013 0.115-0.029s0.069-0.027 0.096-0.029c0.057 0 0.299-0.054 0.364-0.080 0.059-0.023 0.302-0.088 0.431-0.113 0.054-0.010 0.184-0.063 0.293-0.117 0.169-0.086 0.203-0.113 0.245-0.184l0.048-0.082-0.038-0.061c-0.082-0.132-0.174-0.197-0.385-0.27-0.111-0.038-0.226-0.080-0.258-0.090-0.031-0.011-0.096-0.029-0.144-0.040s-0.096-0.027-0.109-0.038c-0.023-0.017-0.142-0.044-0.346-0.073-0.065-0.010-0.157-0.031-0.205-0.048-0.048-0.015-0.103-0.029-0.122-0.029s-0.067-0.013-0.103-0.029c-0.038-0.015-0.098-0.029-0.132-0.029-0.034-0.002-0.084-0.013-0.111-0.029s-0.088-0.027-0.136-0.029c-0.048 0-0.151-0.017-0.23-0.038s-0.17-0.038-0.205-0.038c-0.035 0-0.078-0.008-0.098-0.019-0.065-0.034-0.821-0.13-1.169-0.149-0.132-0.008-0.258-0.025-0.281-0.038-0.029-0.015-0.142-0.023-0.369-0.023-0.237 0-0.345-0.008-0.39-0.027-0.050-0.021-0.222-0.031-0.695-0.040-0.356-0.008-0.643-0.023-0.664-0.034-0.025-0.011-0.662-0.023-1.751-0.033-1.418-0.011-1.736-0.019-1.839-0.044-0.117-0.027-0.237-0.069-0.308-0.107-0.034-0.019-0.471-0.128-0.586-0.147-0.069-0.010-0.082-0.021-0.092-0.067-0.008-0.031-0.029-0.065-0.050-0.075-0.038-0.021-8.775-0.029-8.831-0.008-0.015 0.006-0.036 0.038-0.044 0.073-0.013 0.054-0.023 0.059-0.102 0.065-0.046 0.004-0.098 0.017-0.113 0.031-0.029 0.025-0.155 0.055-0.211 0.052-0.015-0.002-0.101-0.008-0.191-0.013s-0.17-0.019-0.18-0.029-0.019-0.115-0.019-0.235c-0.002-0.268-0.019-0.299-0.172-0.297-0.059 0-0.109 0.013-0.128 0.031zM4.695 15.751c0.008 0 0.013 0.011 0.013 0.027 0 0.054 0.057 0.088 0.146 0.088 0.077 0 0.084 0.004 0.084 0.046 0 0.111-0.017 0.109 0.926 0.107l0.863-0.004 0.010 0.289c0.006 0.159 0.008 0.299 0.004 0.308-0.004 0.012-0.327 0.019-0.884 0.019-0.923 0-0.905-0.002-0.923 0.086-0.004 0.031-0.025 0.040-0.096 0.048-0.050 0.006-0.105 0.025-0.126 0.044-0.019 0.017-0.050 0.033-0.067 0.033s-0.052 0.010-0.079 0.021c-0.038 0.017-0.063 0.015-0.124-0.008-0.052-0.021-0.105-0.027-0.168-0.019-0.071 0.008-0.099 0.004-0.119-0.019-0.021-0.027-0.040-0.289-0.040-0.521 0.004-0.306 0.011-0.521 0.023-0.536 0.010-0.015 0.209-0.019 0.557-0.010zM4.712 19.736c0.019 0.030 0.054 0.044 0.12 0.052 0.082 0.010 0.096 0.017 0.107 0.065 0.031 0.115-0.017 0.109 0.928 0.109h0.871l-0.006 0.299-0.006 0.297-0.875-0.002c-0.656 0-0.877 0.004-0.888 0.021-0.008 0.013-0.019 0.050-0.027 0.082-0.011 0.055-0.015 0.059-0.1 0.059-0.065 0-0.099 0.012-0.124 0.038-0.038 0.040-0.063 0.042-0.411 0.033l-0.147-0.004-0.017-0.063c-0.010-0.035-0.013-0.126-0.008-0.207 0.006-0.098 0-0.163-0.019-0.209-0.023-0.055-0.023-0.075-0.002-0.115 0.019-0.034 0.023-0.103 0.015-0.255-0.006-0.115-0.006-0.216 0-0.226 0.008-0.010 0.136-0.017 0.285-0.017 0.262 0 0.276 0.002 0.302 0.042zM4.704 23.655c0.019 0.057 0.082 0.096 0.157 0.096 0.063 0 0.077 0.006 0.077 0.036 0 0.021 0.013 0.052 0.031 0.067 0.027 0.027 0.134 0.031 0.898 0.031 0.478 0 0.871 0.006 0.875 0.013 0.004 0.010 0.004 0.151 0 0.318l-0.006 0.301h-0.882c-0.486-0.002-0.89 0.006-0.898 0.013s-0.017 0.036-0.021 0.063c-0.006 0.042-0.017 0.048-0.092 0.054-0.048 0.004-0.101 0.021-0.122 0.038-0.029 0.027-0.075 0.033-0.295 0.029-0.155-0.002-0.268-0.013-0.279-0.025-0.013-0.013-0.019-0.090-0.015-0.201 0.004-0.12-0.004-0.201-0.021-0.243-0.021-0.052-0.021-0.073-0.002-0.12 0.019-0.042 0.023-0.111 0.013-0.253-0.008-0.126-0.004-0.205 0.010-0.22 0.027-0.034 0.565-0.029 0.574 0.004z"></path>
</svg>
