<!-- Generated by IcoMoon.io -->
<svg version="1.1" xmlns="http://www.w3.org/2000/svg" width="112" height="32" viewBox="0 0 112 32">
<title>Meshingun_Name_256_SVG</title>
<path d="M33.741 0.361c-1.134 0.142-1.325 0.181-1.784 0.334-0.257 0.089-0.558 0.214-0.663 0.281-0.104 0.065-0.224 0.12-0.262 0.12-0.039 0-0.236 0.11-0.433 0.241-0.925 0.613-1.461 1.293-1.822 2.344l-0.181 0.51v2.356l0.181 0.515c0.207 0.608 0.454 1.024 0.82 1.402 0.449 0.461 1.111 0.914 1.445 0.986 0.099 0.022 0.229 0.077 0.289 0.115 0.062 0.039 0.286 0.11 0.493 0.154 0.214 0.043 0.493 0.12 0.625 0.164 0.13 0.050 0.437 0.11 0.683 0.142 0.247 0.027 0.563 0.087 0.717 0.137 0.147 0.045 0.481 0.11 0.738 0.137s0.64 0.115 0.849 0.192c0.212 0.072 0.431 0.137 0.498 0.137 0.142 0 0.688 0.291 0.957 0.503 0.322 0.259 0.541 0.647 0.601 1.075 0.077 0.521 0.017 1.074-0.152 1.418-0.147 0.296-0.541 0.784-0.63 0.784-0.033 0-0.125 0.050-0.212 0.11-0.082 0.065-0.411 0.202-0.717 0.312l-0.563 0.204h-1.286c-1.248 0.005-1.298 0-1.724-0.142-0.241-0.082-0.526-0.164-0.63-0.187-0.103-0.017-0.279-0.082-0.382-0.137-0.104-0.060-0.279-0.142-0.384-0.187-0.399-0.181-0.625-0.319-0.942-0.58-0.404-0.341-0.563-0.351-0.81-0.067-0.86 1.021-1.149 1.404-1.149 1.541 0 0.11 0.092 0.235 0.377 0.503 0.204 0.197 0.483 0.416 0.613 0.488 0.51 0.284 1.171 0.608 1.243 0.608 0.038 0 0.187 0.060 0.329 0.137s0.312 0.137 0.382 0.137c0.067 0 0.279 0.055 0.466 0.115 0.509 0.176 0.892 0.219 2.091 0.252 1.346 0.034 2.353-0.043 2.955-0.235 0.241-0.072 0.466-0.132 0.503-0.132 0.060 0 0.461-0.187 1.154-0.543 0.341-0.175 1.33-1.178 1.495-1.512 0.077-0.154 0.175-0.334 0.224-0.411s0.159-0.384 0.241-0.685c0.147-0.51 0.158-0.613 0.158-1.479-0.005-0.866-0.015-0.964-0.158-1.425-0.087-0.274-0.247-0.652-0.351-0.849-0.377-0.685-1.324-1.497-2.069-1.776-0.793-0.296-1.51-0.521-1.801-0.558-0.147-0.022-0.421-0.082-0.601-0.137-0.181-0.055-0.526-0.122-0.767-0.154-0.24-0.027-0.536-0.087-0.661-0.132-0.122-0.043-0.368-0.11-0.548-0.142-0.351-0.070-0.969-0.329-1.298-0.543-0.803-0.531-0.967-1.89-0.344-2.832 0.192-0.291 0.678-0.702 0.909-0.762 0.075-0.022 0.274-0.098 0.444-0.17 0.257-0.115 0.421-0.137 1.122-0.17 0.925-0.039 1.784 0.027 2.041 0.159 0.092 0.048 0.312 0.125 0.486 0.175 0.171 0.050 0.346 0.12 0.384 0.154 0.039 0.027 0.187 0.115 0.329 0.185 0.334 0.171 0.635 0.351 0.765 0.473 0.077 0.070 0.176 0.092 0.319 0.082 0.197-0.017 0.229-0.050 0.444-0.373 0.229-0.361 0.431-0.635 0.798-1.086 0.209-0.262 0.259-0.454 0.137-0.558-0.038-0.027-0.197-0.137-0.344-0.236-0.154-0.092-0.329-0.207-0.384-0.247-0.060-0.038-0.219-0.12-0.356-0.18-0.135-0.067-0.284-0.149-0.327-0.187-0.045-0.038-0.181-0.099-0.301-0.137s-0.291-0.11-0.384-0.164c-0.087-0.050-0.284-0.127-0.431-0.159-0.149-0.038-0.334-0.098-0.411-0.142-0.142-0.072-0.372-0.11-1.592-0.279-0.658-0.087-0.705-0.087-1.45 0.010z"></path>
<path d="M77.745 0.334c-1.019 0.159-1.368 0.231-1.632 0.351-0.152 0.077-0.312 0.137-0.344 0.137-0.067 0-0.658 0.334-1.007 0.57-0.723 0.481-1.67 1.699-1.911 2.449-0.033 0.11-0.11 0.291-0.17 0.406-0.060 0.12-0.11 0.284-0.11 0.366s-0.055 0.346-0.12 0.575c-0.127 0.423-0.127 0.461-0.127 3.88 0 3.435 0 3.452 0.127 3.973 0.384 1.534 1.127 2.695 2.216 3.442 0.483 0.329 0.986 0.603 1.298 0.695 0.137 0.038 0.356 0.11 0.491 0.159 0.58 0.197 2.080 0.257 3.065 0.12 1.161-0.164 2.091-0.64 3.015-1.567 0.324-0.319 0.647-0.695 0.729-0.849 0.481-0.899 0.574-1.086 0.606-1.243 0.022-0.099 0.089-0.281 0.137-0.406 0.176-0.401 0.274-1.606 0.279-3.387 0-1.325-0.010-1.649-0.070-1.714-0.067-0.062-0.58-0.072-2.95-0.077h-2.868l-0.092 0.12c-0.087 0.099-0.099 0.247-0.099 1.091 0 0.877 0.012 0.986 0.104 1.101l0.104 0.132 1.543 0.005c1.795 0.005 1.724-0.015 1.67 0.515-0.147 1.337-0.197 1.616-0.356 1.94-0.092 0.18-0.164 0.356-0.164 0.389 0 0.092-0.608 0.74-0.897 0.954-0.175 0.132-0.476 0.269-0.815 0.378-0.454 0.147-0.625 0.175-1.079 0.175s-0.623-0.027-1.072-0.17c-0.296-0.099-0.663-0.259-0.817-0.351-0.3-0.197-0.902-0.8-0.902-0.909 0-0.039-0.038-0.11-0.082-0.159-0.043-0.050-0.132-0.236-0.197-0.416-0.279-0.8-0.274-0.658-0.257-4.050l0.015-3.178 0.154-0.466c0.087-0.257 0.192-0.526 0.229-0.603 0.045-0.077 0.127-0.236 0.181-0.356 0.185-0.389 0.743-0.882 1.324-1.168l0.521-0.257h0.771c0.827 0 0.74-0.022 1.604 0.373 0.312 0.142 0.909 0.705 1.079 1.019 0.075 0.137 0.17 0.312 0.212 0.389 0.039 0.077 0.115 0.257 0.17 0.406 0.17 0.493 0.127 0.476 1.533 0.461 1.019-0.012 1.238-0.034 1.286-0.099 0.137-0.209-0.065-0.937-0.497-1.813-0.444-0.894-1.089-1.656-1.901-2.247-0.24-0.176-0.464-0.324-0.497-0.324-0.027 0-0.142-0.060-0.252-0.137s-0.269-0.154-0.351-0.17c-0.082-0.022-0.235-0.082-0.344-0.137-0.197-0.099-0.389-0.137-1.413-0.296-0.569-0.087-0.603-0.092-1.072-0.022z"></path>
<path d="M0.695 0.592c-0.087 0.092-0.092 0.755-0.092 8.377 0 7.945 0.005 8.281 0.098 8.363 0.087 0.082 0.247 0.092 1.101 0.092 0.546 0 1.045-0.022 1.099-0.055 0.055-0.027 0.12-0.12 0.142-0.202 0.027-0.089 0.038-2.384 0.022-5.113-0.017-2.729-0.017-5.003-0.005-5.058 0.033-0.175 0.152-0.092 0.289 0.192 0.077 0.159 0.159 0.351 0.182 0.428 0.043 0.164 0.306 0.75 0.491 1.113 0.077 0.142 0.137 0.284 0.137 0.322 0 0.034 0.060 0.187 0.137 0.341 0.235 0.498 0.795 1.769 0.795 1.819 0 0.027 0.048 0.11 0.108 0.187 0.062 0.077 0.11 0.175 0.11 0.219 0 0.050 0.072 0.229 0.164 0.411 0.087 0.181 0.164 0.351 0.164 0.373 0 0.027 0.077 0.207 0.17 0.411 0.279 0.618 0.428 0.931 0.57 1.226 0.070 0.159 0.147 0.351 0.17 0.428 0.043 0.159 0.219 0.433 0.339 0.531 0.060 0.050 0.322 0.072 0.865 0.072h0.783l0.164-0.202c0.092-0.116 0.197-0.291 0.229-0.401 0.065-0.197 0.312-0.75 0.493-1.101 0.060-0.11 0.103-0.236 0.103-0.274 0-0.045 0.077-0.224 0.164-0.406s0.164-0.366 0.164-0.416c0-0.050 0.050-0.149 0.104-0.224 0.060-0.072 0.132-0.231 0.164-0.346 0.033-0.12 0.11-0.296 0.17-0.384 0.060-0.092 0.11-0.197 0.11-0.236 0-0.065 0.301-0.745 0.498-1.116 0.055-0.11 0.103-0.231 0.103-0.264 0-0.065 0.259-0.647 0.466-1.058 0.077-0.142 0.137-0.284 0.137-0.312 0-0.033 0.050-0.164 0.115-0.291 0.060-0.125 0.159-0.377 0.219-0.558 0.115-0.361 0.324-0.757 0.399-0.762 0.034-0.005 0.045 2.060 0.039 5.2l-0.017 5.205 0.12 0.154 0.116 0.147h2.123l0.224-0.291-0.012-8.24c-0.015-8.176-0.015-8.247-0.125-8.324-0.087-0.067-0.301-0.077-1.161-0.067-0.979 0.017-1.056 0.022-1.132 0.127-0.11 0.154-0.319 0.58-0.526 1.069-0.094 0.224-0.229 0.538-0.306 0.685-0.072 0.154-0.132 0.306-0.132 0.346 0 0.038-0.060 0.164-0.137 0.274s-0.137 0.235-0.137 0.279c0 0.043-0.060 0.18-0.13 0.301-0.072 0.125-0.149 0.284-0.171 0.361-0.043 0.142-0.197 0.488-0.469 1.074-0.089 0.181-0.159 0.361-0.159 0.401 0 0.038-0.045 0.137-0.104 0.214-0.055 0.082-0.12 0.207-0.142 0.284s-0.147 0.366-0.284 0.652c-0.132 0.284-0.291 0.63-0.346 0.767-0.053 0.137-0.135 0.324-0.185 0.416-0.050 0.087-0.087 0.197-0.087 0.241 0 0.038-0.060 0.187-0.132 0.329-0.235 0.444-0.712 1.529-0.777 1.759-0.022 0.077-0.082 0.202-0.137 0.284-0.060 0.077-0.12 0.226-0.137 0.329-0.055 0.269-0.12 0.373-0.252 0.373-0.13 0-0.257-0.142-0.262-0.306 0-0.060-0.060-0.231-0.132-0.384-0.070-0.149-0.219-0.478-0.334-0.735-0.11-0.257-0.257-0.592-0.329-0.74-0.070-0.154-0.202-0.433-0.289-0.63s-0.224-0.493-0.306-0.658c-0.077-0.164-0.142-0.329-0.142-0.356s-0.060-0.175-0.132-0.329c-0.070-0.147-0.207-0.449-0.306-0.658-0.092-0.214-0.229-0.498-0.306-0.635-0.070-0.142-0.13-0.291-0.13-0.324 0-0.038-0.062-0.197-0.132-0.351-0.291-0.603-0.745-1.644-0.745-1.699 0-0.033-0.060-0.152-0.137-0.262s-0.137-0.236-0.137-0.281c0-0.038-0.060-0.192-0.13-0.344-0.122-0.252-0.488-1.074-0.531-1.2-0.082-0.219-0.368-0.63-0.461-0.652-0.060-0.015-0.541-0.033-1.072-0.033-0.865 0-0.974 0.010-1.051 0.099z"></path>
<path d="M16.694 0.603c-0.11 0.11-0.11 0.159-0.099 8.389 0.017 8.122 0.017 8.279 0.12 8.356 0.094 0.067 0.909 0.077 5.33 0.077 3.301 0 5.255-0.022 5.32-0.055 0.181-0.099 0.214-0.334 0.181-1.348-0.027-0.854-0.045-0.981-0.137-1.074-0.099-0.099-0.247-0.104-4.104-0.094-3.301 0.005-4.007-0.005-4.045-0.070-0.027-0.039-0.050-1.036-0.050-2.214 0-1.793 0.010-2.159 0.077-2.209 0.060-0.050 0.92-0.065 3.392-0.060l3.317 0.005 0.137-0.137c0.137-0.137 0.137-0.142 0.137-1.156s0-1.019-0.137-1.156l-0.137-0.137-3.312 0.010c-2.545 0.005-3.332-0.010-3.392-0.060-0.072-0.060-0.082-0.401-0.082-2.334 0-1.567 0.015-2.274 0.060-2.301 0.033-0.017 1.812-0.033 3.952-0.027 2.736 0.005 3.945-0.005 4.072-0.050 0.267-0.099 0.3-0.247 0.279-1.315-0.017-0.914-0.022-0.942-0.149-1.046-0.12-0.099-0.289-0.104-5.373-0.104-5.183 0-5.25 0-5.358 0.11z"></path>
<path d="M40.664 0.603c-0.11 0.11-0.11 0.159-0.098 8.389 0.015 8.122 0.015 8.279 0.12 8.356 0.087 0.060 0.339 0.077 1.181 0.077 1.007 0 1.084-0.005 1.194-0.11 0.065-0.065 0.12-0.154 0.12-0.209 0.007-0.048 0-1.572 0-3.385l-0.005-3.288 0.142-0.067c0.104-0.048 0.997-0.065 3.334-0.065 2.878 0 3.202 0.010 3.267 0.087 0.060 0.072 0.070 0.702 0.065 3.42-0.010 3.277-0.010 3.337 0.099 3.474l0.11 0.142h1.062c0.925 0 1.067-0.010 1.171-0.099l0.12-0.092v-8.252c-0.005-4.543-0.015-8.291-0.033-8.341-0.022-0.043-0.087-0.098-0.154-0.115-0.175-0.050-2.134-0.038-2.211 0.012-0.159 0.098-0.17 0.404-0.17 3.759 0.005 2.065-0.010 3.452-0.045 3.485-0.033 0.033-1.384 0.055-3.354 0.055-2.671 0.005-3.317-0.005-3.354-0.065-0.022-0.039-0.045-1.589-0.045-3.442 0.007-1.853 0.007-3.425 0-3.497 0-0.065-0.048-0.17-0.11-0.229-0.103-0.104-0.18-0.11-1.204-0.11-1.022 0-1.099 0.005-1.204 0.11z"></path>
<path d="M54.348 0.603c-0.11 0.11-0.11 0.181-0.11 8.356s0 8.247 0.11 8.356c0.103 0.104 0.18 0.11 1.171 0.11 0.985 0 1.067-0.005 1.204-0.115l0.142-0.11v-8.247c0-8.17 0-8.241-0.11-8.351-0.104-0.104-0.18-0.11-1.204-0.11s-1.101 0.005-1.204 0.11z"></path>
<path d="M58.622 0.586l-0.115 0.099v8.137c0 4.476 0 8.192 0 8.257 0 0.072 0.050 0.176 0.11 0.236 0.103 0.104 0.18 0.11 1.166 0.11 0.825 0 1.077-0.017 1.164-0.077 0.104-0.077 0.104-0.207 0.115-5.846 0.012-3.497 0.034-5.786 0.067-5.82 0.050-0.048 0.207 0.171 0.635 0.894 0.115 0.197 0.267 0.428 0.339 0.51 0.070 0.087 0.125 0.175 0.125 0.202 0 0.022 0.122 0.224 0.264 0.449 0.147 0.219 0.399 0.61 0.558 0.866 0.158 0.257 0.354 0.558 0.431 0.675 0.077 0.115 0.17 0.247 0.197 0.295 0.055 0.094 0.236 0.378 0.658 1.031 0.997 1.545 1.231 1.918 1.313 2.055 0.043 0.077 0.235 0.373 0.426 0.668 0.488 0.752 0.76 1.185 0.882 1.382 0.295 0.476 1.139 1.786 1.291 2.005 0.050 0.077 0.137 0.219 0.187 0.319 0.18 0.349 0.329 0.394 1.39 0.394 0.93 0 0.947 0 1.077-0.137l0.137-0.132v-8.214c0-6.997-0.010-8.224-0.077-8.317-0.070-0.099-0.163-0.104-1.192-0.122-0.909-0.010-1.134 0-1.221 0.067-0.11 0.077-0.11 0.147-0.12 5.933-0.012 6.483 0.005 6.231-0.346 5.541-0.098-0.187-0.24-0.445-0.322-0.565-0.149-0.214-0.319-0.476-0.598-0.931-0.075-0.12-0.18-0.279-0.24-0.356-0.055-0.077-0.154-0.236-0.214-0.356-0.065-0.12-0.219-0.366-0.344-0.548-0.224-0.329-0.531-0.822-0.598-0.964-0.022-0.045-0.11-0.181-0.192-0.306-0.421-0.647-0.87-1.354-0.94-1.491-0.050-0.082-0.204-0.312-0.346-0.515-0.142-0.197-0.257-0.377-0.257-0.399s-0.132-0.236-0.296-0.483c-0.158-0.241-0.354-0.553-0.437-0.69s-0.252-0.406-0.378-0.598c-0.207-0.307-0.486-0.767-0.663-1.074-0.038-0.060-0.163-0.252-0.279-0.433-0.12-0.175-0.262-0.399-0.317-0.493-0.055-0.092-0.17-0.279-0.257-0.416-0.094-0.137-0.209-0.319-0.264-0.411-0.048-0.087-0.17-0.241-0.262-0.339l-0.175-0.181h-0.986c-0.853 0-1.002 0.010-1.099 0.092z"></path>
<path d="M85.533 0.526c-0.209 0.060-0.214 0.142-0.192 6.077 0.017 5.255 0.022 5.786 0.11 6.137 0.055 0.209 0.12 0.503 0.147 0.658 0.127 0.75 0.755 1.908 1.363 2.526 0.536 0.543 1.473 1.151 1.949 1.26 0.092 0.022 0.229 0.072 0.312 0.11 0.224 0.115 1.303 0.241 2.069 0.241 0.914 0 1.702-0.092 2.135-0.252 0.197-0.072 0.394-0.132 0.438-0.132 0.048 0 0.17-0.060 0.272-0.132 0.104-0.070 0.247-0.142 0.313-0.164 0.36-0.115 1.122-0.735 1.51-1.228 0.498-0.635 0.825-1.253 0.974-1.819 0.033-0.137 0.092-0.312 0.137-0.394 0.038-0.077 0.108-0.555 0.158-1.053 0.067-0.74 0.082-1.906 0.082-6.279 0-5.298 0-5.37-0.11-5.479-0.104-0.104-0.18-0.11-1.204-0.11s-1.099 0.005-1.204 0.11c-0.11 0.11-0.11 0.181-0.11 5.654 0 5.354-0.005 5.574-0.11 6.127-0.137 0.695-0.399 1.243-0.81 1.704-0.164 0.176-0.324 0.324-0.351 0.324-0.033 0-0.142 0.060-0.235 0.137-0.115 0.082-0.426 0.197-0.854 0.306-0.596 0.154-0.728 0.17-1.164 0.142-0.603-0.038-1.462-0.284-1.764-0.509-0.601-0.438-0.925-0.872-1.192-1.611l-0.17-0.466-0.027-5.873c-0.022-4.712-0.045-5.89-0.099-5.945s-0.351-0.072-1.176-0.082c-0.608-0.007-1.144 0.005-1.199 0.015z"></path>
<path d="M98.815 0.63l-0.137 0.132v16.394l0.137 0.132c0.132 0.137 0.137 0.137 1.204 0.137 0.997 0 1.074-0.005 1.176-0.11 0.062-0.060 0.11-0.164 0.11-0.236 0-0.065 0-2.658 0-5.753 0-5.363 0-5.632 0.094-5.616 0.055 0.012 0.152 0.116 0.219 0.236 0.065 0.12 0.175 0.312 0.235 0.433 0.065 0.115 0.229 0.366 0.361 0.558 0.132 0.187 0.241 0.356 0.241 0.373 0 0.033 0.536 0.854 0.755 1.156 0.087 0.12 0.175 0.264 0.197 0.319 0.015 0.060 0.158 0.289 0.317 0.521 0.154 0.235 0.334 0.509 0.399 0.613 0.067 0.104 0.199 0.312 0.291 0.466 0.092 0.147 0.214 0.334 0.267 0.411 0.055 0.077 0.199 0.296 0.313 0.493 0.12 0.197 0.272 0.428 0.344 0.51 0.065 0.087 0.127 0.18 0.127 0.202 0 0.027 0.125 0.241 0.279 0.476 0.158 0.236 0.409 0.625 0.563 0.866 0.158 0.241 0.356 0.548 0.444 0.685 0.092 0.137 0.185 0.284 0.219 0.334 0.026 0.050 0.103 0.159 0.158 0.247 0.159 0.236 0.324 0.505 0.553 0.882 0.11 0.187 0.252 0.384 0.306 0.433s0.104 0.122 0.104 0.159c0 0.092 0.688 1.128 0.825 1.243 0.104 0.089 0.247 0.099 1.116 0.099 1.029 0 1.243-0.033 1.308-0.197 0.017-0.050 0.033-3.793 0.033-8.319v-8.224l-0.115-0.099c-0.103-0.082-0.252-0.092-1.219-0.092-0.909 0-1.123 0.017-1.226 0.087l-0.122 0.082v5.858c0 3.709-0.021 5.868-0.055 5.89-0.055 0.033-0.361-0.356-0.449-0.575-0.027-0.077-0.11-0.209-0.175-0.301-0.065-0.087-0.214-0.324-0.329-0.521s-0.257-0.433-0.322-0.531c-0.067-0.094-0.231-0.351-0.368-0.565-0.431-0.695-0.918-1.447-1.034-1.594-0.060-0.082-0.137-0.209-0.163-0.286-0.034-0.075-0.181-0.312-0.329-0.526-0.154-0.214-0.279-0.406-0.279-0.433 0-0.021-0.072-0.142-0.154-0.262-0.082-0.127-0.284-0.444-0.449-0.702-0.164-0.262-0.431-0.673-0.586-0.914-0.159-0.241-0.289-0.461-0.289-0.483 0-0.027-0.050-0.104-0.104-0.175-0.104-0.132-0.247-0.368-0.421-0.68-0.050-0.092-0.142-0.229-0.209-0.312-0.065-0.077-0.185-0.269-0.279-0.428-0.087-0.159-0.217-0.351-0.279-0.428-0.065-0.082-0.17-0.247-0.229-0.366-0.065-0.12-0.192-0.319-0.284-0.438-0.087-0.12-0.192-0.279-0.229-0.356-0.159-0.319-0.536-0.872-0.652-0.954-0.11-0.070-0.295-0.087-1.104-0.087-0.964 0-0.974 0-1.106 0.137z"></path>
<path d="M7.793 21.392c-0.092 0.043-0.252 0.092-0.354 0.115-0.296 0.065-0.8 0.406-1.116 0.757-0.361 0.399-0.538 0.887-0.543 1.517-0.010 1.086 0.613 1.896 1.938 2.521 0.137 0.060 0.284 0.137 0.327 0.17 0.045 0.027 0.122 0.067 0.164 0.082 0.301 0.115 0.904 0.455 1.069 0.592 0.289 0.252 0.519 0.685 0.519 0.969 0 0.306-0.382 0.944-0.661 1.091-0.045 0.027-0.279 0.099-0.515 0.159l-0.426 0.115-0.553-0.115c-0.548-0.11-1.149-0.356-1.467-0.608-0.125-0.099-0.18-0.11-0.3-0.067-0.197 0.067-0.291 0.259-0.291 0.615 0 0.486 0.104 0.635 0.733 1.024 0.159 0.099 0.663 0.247 1.238 0.361 0.421 0.087 1.199 0.027 1.697-0.132 1.012-0.322 1.663-0.959 1.949-1.896 0.043-0.132 0.075-0.461 0.075-0.728 0-0.401-0.027-0.548-0.142-0.829-0.301-0.712-1.012-1.32-2.101-1.786-0.077-0.033-0.175-0.082-0.219-0.115-0.045-0.027-0.17-0.092-0.274-0.137-0.608-0.269-0.935-0.538-1.127-0.914-0.176-0.346-0.17-0.652 0.021-1.003 0.122-0.219 0.209-0.301 0.455-0.421 0.471-0.236 0.728-0.247 1.291-0.077 0.558 0.175 0.651 0.214 0.837 0.356 0.209 0.159 0.461 0.187 0.608 0.065 0.175-0.137 0.207-0.712 0.065-0.986-0.115-0.214-0.58-0.476-1.171-0.663-0.431-0.132-1.445-0.154-1.724-0.033z"></path>
<path d="M99.991 21.425c-0.164 0.060-0.349 0.104-0.409 0.11-0.269 0-1.243 0.608-1.567 0.964-0.366 0.411-0.771 1.113-0.842 1.452-0.015 0.104-0.087 0.346-0.152 0.543-0.11 0.324-0.122 0.466-0.122 1.589 0 1.188 0.007 1.255 0.154 1.781 0.247 0.86 0.481 1.305 0.962 1.786 0.236 0.241 0.538 0.478 0.69 0.553 0.154 0.072 0.324 0.159 0.384 0.199 0.175 0.103 0.728 0.229 1.276 0.295 1.039 0.132 2.248-0.152 3.021-0.717 0.493-0.356 1.134-1.2 1.236-1.627 0.022-0.087 0.082-0.247 0.137-0.356 0.187-0.378 0.351-1.93 0.274-2.63-0.142-1.265-0.224-1.601-0.526-2.132-0.043-0.077-0.132-0.236-0.197-0.356-0.274-0.498-1.187-1.205-1.724-1.337-0.12-0.027-0.361-0.087-0.541-0.137-0.481-0.132-1.652-0.12-2.053 0.022zM101.716 22.707c0.76 0.192 1.116 0.498 1.462 1.238 0.312 0.685 0.421 2.099 0.245 3.178-0.12 0.75-0.366 1.26-0.805 1.661-0.449 0.416-0.514 0.454-0.902 0.531-0.18 0.038-0.426 0.087-0.548 0.115-0.158 0.033-0.372 0.017-0.793-0.065-0.651-0.132-0.7-0.149-1.051-0.444-0.339-0.281-0.546-0.63-0.733-1.223-0.152-0.476-0.159-0.526-0.159-1.671 0-1.151 0.007-1.188 0.154-1.616 0.087-0.241 0.202-0.503 0.262-0.586 0.055-0.082 0.104-0.176 0.104-0.209 0-0.099 0.378-0.476 0.651-0.652 0.286-0.18 0.986-0.378 1.375-0.384 0.137 0 0.469 0.055 0.738 0.127z"></path>
<path d="M42.635 21.408c-0.284 0.104-0.438 0.209-0.493 0.341-0.045 0.11-0.055 0.991-0.045 3.188 0.017 3.009 0.022 3.041 0.149 3.42 0.202 0.62 0.449 1.058 0.777 1.397 0.334 0.346 0.858 0.68 1.149 0.74 0.104 0.017 0.295 0.077 0.431 0.127 0.394 0.147 1.55 0.125 2.080-0.039 1.002-0.312 1.658-0.872 2.074-1.769 0.291-0.637 0.301-0.757 0.324-3.962 0.005-1.627 0-3.014-0.017-3.086-0.070-0.295-0.661-0.466-1.062-0.306-0.404 0.159-0.394 0.077-0.384 3.337l0.012 2.866-0.154 0.471c-0.12 0.378-0.197 0.521-0.404 0.74-0.296 0.312-0.356 0.344-0.815 0.466-0.449 0.115-0.882 0.11-1.33-0.017-0.515-0.137-0.848-0.433-1.122-0.981l-0.214-0.421-0.010-3.113c-0.012-2.18-0.027-3.139-0.072-3.188-0.132-0.159-0.668-0.284-0.875-0.209z"></path>
<path d="M82.817 21.462c-0.414 0.149-0.394-0.115-0.394 4.575 0 4.642-0.021 4.356 0.361 4.515 0.334 0.142 0.827 0.067 1.024-0.152 0.087-0.104 0.092-0.39 0.092-4.356 0-2.938-0.015-4.281-0.060-4.356-0.070-0.132-0.459-0.319-0.651-0.313-0.077 0-0.241 0.039-0.373 0.087z"></path>
<path d="M23.387 21.462c-0.027 0.007-0.116 0.022-0.199 0.039-0.284 0.065-0.464 0.563-0.306 0.872 0.034 0.065 0.116 0.175 0.176 0.24 0.11 0.122 0.142 0.127 1.248 0.127 0.925 0 1.144 0.017 1.197 0.082 0.050 0.060 0.067 0.914 0.062 3.654-0.007 1.967 0.010 3.651 0.038 3.738 0.060 0.229 0.269 0.361 0.618 0.394 0.334 0.033 0.668-0.070 0.76-0.247 0.034-0.070 0.055-1.358 0.055-3.796 0-2.801 0.017-3.711 0.067-3.76 0.050-0.048 0.394-0.065 1.221-0.065 1.144 0 1.159 0 1.274-0.127 0.356-0.377 0.192-1.134-0.247-1.134-1.361-0.010-5.937-0.027-5.964-0.017z"></path>
<path d="M62.798 21.534c-0.306 0.12-0.296-0.060-0.296 4.449 0 2.615 0.022 4.199 0.055 4.291 0.099 0.257 0.324 0.301 1.515 0.301 2.267 0 3.027-0.175 4.012-0.921 0.384-0.289 0.909-0.979 1.014-1.325 0.021-0.077 0.087-0.224 0.142-0.329 0.060-0.104 0.103-0.252 0.103-0.334 0-0.077 0.039-0.264 0.082-0.411 0.122-0.406 0.204-1.26 0.164-1.694-0.082-0.904-0.306-1.627-0.738-2.384-0.17-0.296-0.695-0.812-1.024-1.003-0.788-0.466-1.099-0.58-1.712-0.64-0.652-0.065-3.164-0.065-3.317 0zM65.462 22.762c0.586 0.022 0.663 0.038 1.041 0.219 0.464 0.219 0.87 0.608 1.127 1.074 0.219 0.406 0.416 1.315 0.416 1.918-0.005 0.647-0.209 1.649-0.411 2.027-0.366 0.69-1.067 1.178-1.817 1.265-0.673 0.077-1.707 0.060-1.779-0.027-0.050-0.060-0.065-0.872-0.065-3.221 0-1.726 0.005-3.163 0.005-3.185 0-0.082 0.247-0.13 0.548-0.115 0.164 0.012 0.586 0.027 0.935 0.045z"></path>
</svg>
