<!-- Generated by IcoMoon.io -->
<svg version="1.1" xmlns="http://www.w3.org/2000/svg" width="32" height="32" viewBox="0 0 32 32">
<title>Unreal_Engine_Logo</title>
<path d="M14.337 6.35c-0.011 0.006-0.056 0.016-0.1 0.023-0.045 0.008-0.124 0.021-0.175 0.031s-0.127 0.025-0.169 0.033c-0.041 0.007-0.085 0.019-0.096 0.025-0.012 0.008-0.039 0.013-0.060 0.013s-0.059 0.009-0.084 0.019c-0.024 0.010-0.054 0.019-0.066 0.019-0.011 0-0.060 0.011-0.107 0.025-0.047 0.015-0.125 0.038-0.174 0.052-0.047 0.014-0.11 0.033-0.137 0.042-0.028 0.007-0.084 0.025-0.125 0.038-0.041 0.011-0.095 0.028-0.119 0.037-0.107 0.038-0.134 0.046-0.173 0.057-0.023 0.006-0.048 0.016-0.055 0.023s-0.024 0.014-0.036 0.014c-0.011 0-0.040 0.008-0.063 0.018s-0.095 0.039-0.16 0.065c-0.065 0.025-0.144 0.057-0.175 0.070s-0.077 0.034-0.1 0.043c-0.024 0.011-0.059 0.028-0.078 0.037s-0.039 0.017-0.047 0.017c-0.015 0-0.547 0.263-0.712 0.35-0.119 0.064-0.166 0.091-0.381 0.221-0.096 0.059-0.181 0.11-0.189 0.114-0.021 0.013-0.357 0.243-0.475 0.325-0.192 0.134-0.559 0.422-0.73 0.572-0.017 0.015-0.071 0.062-0.121 0.104-0.184 0.155-0.72 0.701-0.83 0.845-0.016 0.020-0.069 0.084-0.117 0.139s-0.098 0.115-0.11 0.131c-0.012 0.017-0.043 0.058-0.068 0.090s-0.069 0.087-0.097 0.12c-0.027 0.033-0.070 0.088-0.094 0.122-0.147 0.208-0.296 0.426-0.357 0.523-0.039 0.062-0.087 0.136-0.106 0.165-0.020 0.029-0.037 0.055-0.037 0.059s-0.028 0.054-0.063 0.111c-0.035 0.057-0.069 0.114-0.075 0.128s-0.025 0.047-0.040 0.075c-0.079 0.139-0.327 0.635-0.374 0.744-0.006 0.018-0.020 0.048-0.029 0.069-0.059 0.133-0.172 0.413-0.215 0.525-0.010 0.028-0.026 0.069-0.037 0.091s-0.017 0.054-0.017 0.069c0 0.016-0.009 0.040-0.019 0.054s-0.019 0.038-0.019 0.055-0.009 0.042-0.019 0.055-0.019 0.039-0.019 0.055-0.006 0.041-0.015 0.056-0.019 0.044-0.023 0.065c-0.006 0.020-0.019 0.065-0.029 0.1s-0.034 0.113-0.051 0.175c-0.035 0.117-0.059 0.208-0.082 0.313-0.007 0.034-0.020 0.081-0.026 0.103-0.008 0.022-0.019 0.070-0.025 0.106-0.039 0.208-0.051 0.274-0.060 0.336-0.006 0.039-0.017 0.099-0.024 0.131-0.062 0.28-0.143 1.108-0.145 1.467-0.001 0.17 0.019 0.16 0.096-0.050 0.034-0.093 0.070-0.187 0.079-0.209 0.010-0.021 0.018-0.046 0.018-0.056s0.005-0.022 0.010-0.030c0.006-0.006 0.021-0.040 0.034-0.074 0.011-0.035 0.029-0.080 0.039-0.1 0.009-0.021 0.042-0.1 0.075-0.175 0.081-0.191 0.115-0.269 0.136-0.31 0.010-0.020 0.019-0.045 0.019-0.057s0.005-0.026 0.013-0.034c0.006-0.006 0.067-0.121 0.135-0.255 0.188-0.37 0.229-0.442 0.414-0.725 0.18-0.275 0.29-0.415 0.469-0.595 0.266-0.266 0.441-0.374 0.713-0.435 0.12-0.027 0.433-0.027 0.522 0 0.037 0.010 0.088 0.025 0.115 0.033 0.103 0.030 0.276 0.126 0.379 0.212 0.231 0.195 0.385 0.463 0.42 0.735 0.010 0.076 0.011 1.196 0.007 3.894l-0.007 3.788-0.026 0.078c-0.058 0.164-0.129 0.271-0.235 0.357-0.090 0.073-0.123 0.089-0.243 0.129-0.127 0.042-0.27 0.059-0.426 0.049-0.212-0.013-0.426-0.053-0.68-0.126-0.124-0.036-0.128-0.020-0.030 0.107 0.044 0.056 0.101 0.131 0.129 0.167s0.079 0.099 0.115 0.14c0.035 0.040 0.107 0.124 0.162 0.186s0.131 0.149 0.173 0.194 0.124 0.131 0.183 0.194c0.058 0.061 0.145 0.149 0.192 0.192 0.049 0.045 0.128 0.118 0.175 0.163 0.257 0.243 0.712 0.614 0.953 0.776 0.21 0.144 0.502 0.337 0.507 0.337s0.031 0.016 0.061 0.036c0.030 0.019 0.083 0.051 0.116 0.070 0.035 0.019 0.071 0.041 0.083 0.051 0.010 0.010 0.022 0.017 0.028 0.017s0.051 0.025 0.104 0.057c0.051 0.031 0.099 0.056 0.104 0.056s0.046 0.020 0.090 0.043c0.112 0.063 0.524 0.264 0.56 0.275 0.018 0.005 0.056 0.022 0.086 0.039 0.031 0.016 0.064 0.030 0.074 0.030s0.034 0.008 0.051 0.018c0.050 0.028 0.24 0.105 0.343 0.14 0.050 0.018 0.096 0.038 0.103 0.044s0.023 0.011 0.039 0.011c0.014 0 0.036 0.007 0.050 0.017 0.014 0.009 0.042 0.020 0.063 0.023s0.057 0.014 0.081 0.022 0.064 0.022 0.087 0.031c0.024 0.009 0.075 0.025 0.113 0.036 0.037 0.010 0.125 0.036 0.193 0.058 0.182 0.054 0.249 0.072 0.494 0.131 0.209 0.050 0.563 0.116 0.775 0.145 0.051 0.006 0.103 0.015 0.111 0.019 0.056 0.020 0.626 0.071 0.895 0.080l0.311 0.011 0.051-0.046c0.027-0.025 0.623-0.618 1.321-1.317 0.81-0.812 1.28-1.272 1.295-1.272 0.014 0 0.040 0.021 0.060 0.046 0.020 0.026 0.098 0.116 0.174 0.2 0.175 0.192 0.378 0.42 0.433 0.485 0.023 0.026 0.071 0.080 0.106 0.119s0.111 0.123 0.169 0.189c0.337 0.388 0.614 0.692 0.63 0.696 0.013 0.002 0.3-0.136 0.431-0.209 0.024-0.014 0.053-0.027 0.063-0.031s0.041-0.021 0.069-0.036c0.027-0.016 0.081-0.046 0.119-0.067 0.058-0.031 0.192-0.11 0.263-0.154 0.010-0.006 0.075-0.046 0.144-0.087 0.069-0.042 0.199-0.127 0.288-0.189s0.183-0.125 0.206-0.141c0.041-0.027 0.086-0.061 0.327-0.244 0.057-0.044 0.152-0.12 0.209-0.169 0.058-0.049 0.125-0.105 0.15-0.126 0.191-0.154 0.865-0.816 0.99-0.974 0.038-0.047 0.095-0.115 0.126-0.15 0.238-0.262 0.627-0.804 0.888-1.232 0.181-0.297 0.192-0.319 0.389-0.714 0.16-0.319 0.204-0.413 0.254-0.536 0.012-0.031 0.034-0.080 0.046-0.109s0.022-0.055 0.022-0.060c0-0.003 0.011-0.030 0.023-0.060 0.046-0.103 0.102-0.25 0.102-0.27 0-0.011 0.006-0.028 0.014-0.035s0.018-0.033 0.023-0.055c0.013-0.049 0.034-0.112 0.058-0.171 0.010-0.023 0.018-0.051 0.018-0.064s0.009-0.040 0.019-0.059c0.010-0.020 0.019-0.049 0.019-0.064s0.007-0.046 0.018-0.069c0.010-0.022 0.034-0.1 0.051-0.172s0.042-0.159 0.051-0.191c0.017-0.056 0.015-0.084-0.005-0.084-0.005 0-0.195 0.184-0.421 0.41-0.606 0.603-0.913 0.875-1.323 1.179-0.111 0.083-0.357 0.249-0.39 0.262-0.014 0.006-0.045 0.024-0.068 0.038-0.095 0.058-0.235 0.132-0.3 0.16-0.038 0.016-0.074 0.034-0.080 0.040s-0.023 0.011-0.039 0.011-0.033 0.006-0.040 0.014c-0.007 0.007-0.036 0.019-0.063 0.025-0.059 0.013-0.14 0.034-0.221 0.056-0.087 0.025-0.487 0.025-0.538-0.001-0.019-0.010-0.049-0.019-0.065-0.019-0.087 0-0.422-0.199-0.474-0.281-0.024-0.038-0.030-0.34-0.039-1.694-0.003-0.67-0.012-1.68-0.020-2.244-0.021-1.679-0.027-4.086-0.011-4.181 0.009-0.045 0.020-0.138 0.026-0.206 0.016-0.171 0.063-0.44 0.105-0.613 0.010-0.041 0.025-0.1 0.033-0.131 0.022-0.091 0.167-0.531 0.199-0.606 0.006-0.014 0.023-0.056 0.039-0.094 0.065-0.169 0.244-0.541 0.359-0.75 0.049-0.089 0.225-0.383 0.259-0.431 0.031-0.044 0.050-0.074 0.080-0.124 0.011-0.020 0.032-0.050 0.047-0.069 0.014-0.017 0.059-0.080 0.099-0.139 0.147-0.216 0.32-0.435 0.567-0.725 0.204-0.237 0.808-0.842 0.952-0.951 0.046-0.035 0.043-0.070-0.005-0.055-0.026 0.007-0.166 0.037-0.273 0.056-0.033 0.006-0.078 0.016-0.1 0.023-0.042 0.013-0.143 0.034-0.234 0.050-0.031 0.005-0.076 0.015-0.1 0.022-0.055 0.018-0.141 0.040-0.206 0.054-0.027 0.005-0.066 0.016-0.087 0.022s-0.071 0.022-0.113 0.034c-0.136 0.036-0.4 0.12-0.435 0.139-0.020 0.010-0.049 0.018-0.064 0.018s-0.034 0.006-0.041 0.014c-0.007 0.008-0.032 0.018-0.055 0.024-0.058 0.014-0.123 0.038-0.164 0.058-0.017 0.010-0.041 0.018-0.051 0.018-0.018 0-0.313 0.124-0.374 0.156-0.018 0.010-0.039 0.019-0.046 0.019-0.035 0-0.632 0.296-0.789 0.391-0.024 0.014-0.069 0.039-0.1 0.055-0.065 0.034-0.090 0.050-0.304 0.185-0.087 0.055-0.168 0.106-0.18 0.112-0.021 0.013-0.127 0.085-0.285 0.195-0.631 0.443-1.325 1.067-1.813 1.627-0.034 0.040-0.073 0.071-0.085 0.071-0.014 0-0.064-0.026-0.114-0.060-0.129-0.085-0.276-0.164-0.401-0.215-0.105-0.041-0.13-0.050-0.172-0.057-0.025-0.004-0.050-0.013-0.054-0.019s-0.019-0.011-0.034-0.011c-0.015 0-0.053-0.007-0.084-0.018-0.064-0.020-0.23-0.050-0.386-0.070-0.058-0.007-0.206-0.014-0.331-0.013-0.33 0.003-0.35 0.004-0.355 0.029-0.003 0.011 0.001 0.021 0.008 0.021 0.033 0 0.183 0.117 0.325 0.256 0.094 0.091 0.203 0.213 0.277 0.313 0.069 0.091 0.124 0.169 0.124 0.172 0 0.005 0.029 0.054 0.063 0.11 0.064 0.104 0.187 0.347 0.187 0.373 0 0.006 0.005 0.022 0.012 0.035 0.013 0.022 0.044 0.105 0.063 0.171 0.006 0.020 0.021 0.069 0.033 0.106s0.033 0.122 0.046 0.188c0.025 0.119 0.025 0.137 0.030 4.131 0.002 2.207 0.001 4.025-0.002 4.040-0.006 0.025-0.041 0.058-0.231 0.214-0.048 0.040-0.302 0.226-0.335 0.246-0.011 0.006-0.056 0.038-0.101 0.068-0.234 0.157-0.794 0.463-0.85 0.463-0.011 0-0.026 0.005-0.032 0.011-0.015 0.015-0.097 0.044-0.213 0.078-0.047 0.014-0.104 0.031-0.125 0.039-0.020 0.007-0.068 0.017-0.106 0.022s-0.085 0.016-0.104 0.023c-0.056 0.021-0.436 0.018-0.492-0.005-0.024-0.010-0.059-0.019-0.078-0.019-0.036 0-0.139-0.031-0.191-0.058-0.018-0.010-0.043-0.018-0.057-0.018s-0.031-0.009-0.040-0.019c-0.009-0.010-0.024-0.019-0.034-0.019-0.036 0-0.285-0.185-0.381-0.284-0.107-0.11-0.28-0.368-0.316-0.469-0.016-0.047-0.019-0.646-0.019-4.87 0-4.44-0.001-4.816-0.020-4.824-0.011-0.003-0.039 0.001-0.060 0.011-0.219 0.11-0.405 0.138-0.589 0.085-0.313-0.086-0.5-0.342-0.599-0.813-0.030-0.142-0.050-0.475-0.040-0.645 0.019-0.31 0.041-0.429 0.132-0.717 0.036-0.111 0.044-0.132 0.103-0.26 0.019-0.043 0.035-0.083 0.035-0.088 0-0.035 0.145-0.287 0.291-0.509 0.255-0.384 0.647-0.789 1.051-1.083 0.18-0.132 0.315-0.223 0.33-0.223 0.013 0 0.053-0.041 0.053-0.054s-0.090-0.010-0.113 0.004z"></path>
</svg>
